<svg xmlns="http://www.w3.org/2000/svg" width="216.08" height="174.839" viewBox="0 0 216.08 174.839">
    <defs>
        <style>
            .cls-5{fill:#bec1e1}.cls-6{fill:#3c4498}.cls-8{fill:#fff}.cls-11{fill:#a7aefb}
        </style>
    </defs>
    <g id="Archive_Tweet" transform="translate(-893 -570.193)">
        <g id="Archive_tweets-02" transform="translate(893 570.697)">
            <path id="Path_60" fill="none" stroke="#fff" stroke-miterlimit="10" d="M56.64 53.428a.481.481 0 0 0 .449.385l6.158.417a26.719 26.719 0 0 0 5.389 6.9l-1.155 6.03a.545.545 0 0 0 .257.545l6.415 3.657a.449.449 0 0 0 .577 0l4.619-4.041a26.526 26.526 0 0 0 8.628 1.123l3.464 5.068a.481.481 0 0 0 .545.225l7.121-1.925a.545.545 0 0 0 .385-.481l.418-6.131a26.719 26.719 0 0 0 6.864-5.324l6.062 1.155a.449.449 0 0 0 .513-.225l3.689-6.415a.481.481 0 0 0-.289-.481l-3.913-4.81a26.3 26.3 0 0 0 1.091-8.6l5.1-3.464a.545.545 0 0 0 .225-.545l-1.957-7.153a.449.449 0 0 0-.449-.353l-6.126-.417a26.847 26.847 0 0 0-5.324-6.736l1.155-6.03a.577.577 0 0 0-.225-.545L99.91 11.6a.481.481 0 0 0-.577 0l-4.651 3.817a26.4 26.4 0 0 0-8.629-1.117l-3.432-4.975A.545.545 0 0 0 82.044 9l-6.992 2.053a.513.513 0 0 0-.353.449l-.417 6.158a27.456 27.456 0 0 0-6.9 5.292l-6.158-1.123a.513.513 0 0 0-.545.257l-3.689 6.415a.545.545 0 0 0 0 .577l4.041 4.651a27.168 27.168 0 0 0-1.091 8.6l-5.1 3.464a.513.513 0 0 0-.192.545z" transform="translate(96.316 -8.998)"/>
            <path id="Path_61" fill="#bdd0fb" d="M64.47 19.045a7.483 7.483 0 1 1-.706.866 8.825 8.825 0 0 1 .706-.866zm11.03 5.068a5.709 5.709 0 1 0-1.6 4.041 5.226 5.226 0 0 0 .545-.642 5.613 5.613 0 0 0 1.059-3.4z" transform="translate(113.472 8.192)"/>
            <path id="Path_62" fill="#4d84fb" d="M61.87 20.886c-.353.481-.674 1.026-.994 1.572l-.289.513a16.616 16.616 0 0 0-1.155 2.694v.225a.417.417 0 0 0 0 .481.449.449 0 0 0 .545-.289 16.777 16.777 0 0 1 1.475-3.4 17.417 17.417 0 0 1 14.306-8.692 17.128 17.128 0 0 1 9.43 2.277 14.95 14.95 0 0 1 1.508.962A17.385 17.385 0 0 1 67.9 46.417a14.947 14.947 0 0 1-1.508-.962 17.129 17.129 0 0 1-4.972-5.421.449.449 0 0 0-.481 0 .417.417 0 0 0-.16.577 17.962 17.962 0 0 0 5.292 5.9 16.039 16.039 0 0 0 1.54 1.026A18.264 18.264 0 0 0 87.37 16.876c-.513-.353-1.026-.706-1.572-1.026a18.347 18.347 0 0 0-23.928 5.2z" transform="translate(106.738 .835)"/>
            <path id="Path_63" fill="#e4e6ff" fill-rule="evenodd" d="M16.833 170.549s-21.233-25.339 3.56-47.278c0 0-22.26-24.794-8.115-52.924S53.783 44.687 75.53 50.3a72.875 72.875 0 0 0 71.848-19.566c21.747-22.453 47.022-17.641 56.645-7.153s12.124 32.075 1.508 53.437-4.555 35.283 4.555 45.771 10.136 39.709-11.643 47.76z" transform="translate(-7.573 3.785)"/>
            <path id="Path_64" d="M51.076 40.18H19a1.251 1.251 0 0 1-1.251-1.251A1.251 1.251 0 0 1 19 37.71h32.076a1.219 1.219 0 0 1 1.219 1.219 1.219 1.219 0 0 1-1.219 1.251z" class="cls-5" transform="translate(14.892 54.383)"/>
            <path id="Path_65" d="M48.936 41.7H16.861a1.251 1.251 0 0 1-1.251-1.219 1.251 1.251 0 0 1 1.251-1.251h32.075a1.219 1.219 0 0 1 1.251 1.251 1.219 1.219 0 0 1-1.251 1.219z" class="cls-5" transform="translate(10.168 57.738)"/>
            <path id="Path_66" d="M42.053 44.722h-22.9a1.283 1.283 0 0 1-1.253-1.251 1.283 1.283 0 0 1 1.251-1.251h22.9a1.251 1.251 0 0 1 1.219 1.251 1.251 1.251 0 0 1-1.217 1.251z" class="cls-5" transform="translate(15.223 64.339)"/>
            <path id="Path_67" d="M51.274 43.2H19.2a1.219 1.219 0 0 1-1.219-1.219A1.251 1.251 0 0 1 19.2 40.73h32.074a1.251 1.251 0 0 1 1.219 1.251 1.219 1.219 0 0 1-1.219 1.219z" class="cls-5" transform="translate(15.4 61.05)"/>
            <rect id="Rectangle_592" width="130.802" height="86.956" class="cls-6" rx="3.13" transform="translate(82.904 60.371)"/>
            <path id="Path_68" fill="#757cc1" d="M37.141 27.822h123.233a3.721 3.721 0 0 1 3.849 3.785v71.271H33.42V31.606a3.721 3.721 0 0 1 3.721-3.785z" transform="translate(49.484 32.55)"/>
            <path id="Path_69" d="M59.322 55.413h-5.2a1.508 1.508 0 0 1-1.475-1.475 1.508 1.508 0 0 1 1.476-1.508h5.2a1.508 1.508 0 0 1 1.508 1.508 1.508 1.508 0 0 1-1.508 1.475z" class="cls-8" transform="translate(91.934 86.878)"/>
            <path id="Path_70" d="M73.76 68.722V54.93h-17.8v13.792a7.057 7.057 0 0 1-7.089 7.057v5.934h32.491v-5.934h-.449a7.057 7.057 0 0 1-7.153-7.057z" class="cls-6" transform="translate(83.59 92.397)"/>
            <path id="Rectangle_593" d="M0 0H120.763V64.086H0z" class="cls-8" transform="translate(87.747 65.15)"/>
            <path id="Rectangle_594" d="M0 0H122.014V65.145H0z" class="cls-8" transform="translate(87.106 64.509)"/>
            <path id="Rectangle_595" fill="#bec2e9" d="M0 0H122.014V8.468H0z" transform="translate(87.106 64.509)"/>
            <rect id="Rectangle_596" width="98.727" height="3.721" fill="#e4e6ff" rx=".58" transform="translate(90.474 66.818)"/>
            <path id="Path_71" d="M71.286 31.6a1.748 1.748 0 1 1-1.732-1.732 1.732 1.732 0 0 1 1.732 1.732z" class="cls-8" transform="translate(125.356 37.076)"/>
            <path id="Path_72" d="M72.8 31.6a1.748 1.748 0 1 1-1.732-1.732A1.732 1.732 0 0 1 72.8 31.6z" class="cls-8" transform="translate(128.69 37.076)"/>
            <path id="Path_73" d="M74.316 31.6a1.748 1.748 0 1 1-3.5 0 1.732 1.732 0 0 1 1.732-1.732 1.764 1.764 0 0 1 1.768 1.732z" class="cls-8" transform="translate(132.045 37.076)"/>
            <path id="Rectangle_597" d="M0 0H65.177V19.47H0z" class="cls-11" transform="translate(90.474 78.429)"/>
            <path id="Rectangle_598" d="M0 0H65.177V14.53H0z" class="cls-11" transform="translate(90.474 107.65)"/>
            <path id="Rectangle_599" d="M0 0H46.381V14.53H0z" class="cls-11" transform="translate(158.216 107.65)"/>
            <path id="Rectangle_600" d="M0 0H44.649V19.47H0z" class="cls-11" transform="translate(159.948 78.429)"/>
            <circle id="Ellipse_9" cx="4.907" cy="4.907" r="4.907" fill="#36f" stroke="#fff" stroke-miterlimit="10" stroke-width="0.25px" transform="translate(95.477 92.222)"/>
            <path id="Path_74" fill="#3e63cf" fill-rule="evenodd" d="M23.584 19.53h51.769a6.864 6.864 0 0 1 6.832 6.864v48.337a.738.738 0 0 1-1.283.545L69.227 63.6H23.584a6.864 6.864 0 0 1-6.864-6.864V26.394a6.864 6.864 0 0 1 6.864-6.864z" transform="translate(12.618 14.251)"/>
            <path id="Path_75" d="M42.268 45.192a6.736 6.736 0 0 0 2.726-1.058 6.415 6.415 0 0 0 2.5-3.208 8.243 8.243 0 0 1-4.234.385A9.622 9.622 0 0 0 49 38.1a7.506 7.506 0 0 0 1.732-4.587 9.623 9.623 0 0 1-5.292 1.957 9.623 9.623 0 0 0 4.234-4.811 6.062 6.062 0 0 0 .353-4.3 15.717 15.717 0 0 1-11.961 4.431v-1.8a6.223 6.223 0 0 0-11.483-3.5 14.338 14.338 0 0 1-3.015-1.732 6.672 6.672 0 0 0 1.925 3.208 10.328 10.328 0 0 1-2.662-1.091 6.575 6.575 0 0 0 2.694 3.047 19.245 19.245 0 0 0 23.51 21.627 17.449 17.449 0 0 1-6.768-5.357z" class="cls-8" transform="translate(26.106 21.017)"/>
            <path id="Path_76" fill="#36f" d="M44.9 51.06h27.619a1.86 1.86 0 0 1 1.86 1.925L73.1 86.15a1.86 1.86 0 0 1-1.86 1.764H25.208a1.828 1.828 0 0 1-1.925-1.764L22 52.985a1.86 1.86 0 0 1 1.86-1.925h21.074z" transform="rotate(-17 314.086 26.254)"/>
            <path id="Path_77" d="M70.745 54.2l-.609-2.6a1.892 1.892 0 0 0-1.8-1.379H55.734A1.828 1.828 0 0 0 53.97 51.6l-.706 2.6a1.86 1.86 0 0 1-1.8 1.379H23.851a1.86 1.86 0 0 0-1.86 1.925l1.315 33.262a1.86 1.86 0 0 0 1.86 1.8h46.092a1.892 1.892 0 0 0 1.86-1.8L74.4 57.5a1.86 1.86 0 0 0-1.86-1.924 1.86 1.86 0 0 1-1.8-1.379z" class="cls-11" transform="rotate(-17 311.238 27.755)"/>
            <rect id="Rectangle_601" width="19.149" height="4.491" class="cls-8" rx=".7" transform="rotate(-17 565.1 -180.64)"/>
        </g>
    </g>
</svg>
