<svg xmlns="http://www.w3.org/2000/svg" width="253.344" height="198.643" viewBox="0 0 253.344 198.643">
    <defs>
        <style>
            .cls-2{fill:#e4e6ff}.cls-3{fill:#3e63cf}.cls-4{fill:#fff}.cls-5{fill:#ef5d60;stroke:#dc493a;stroke-miterlimit:10;stroke-width:.25px}.cls-7{fill:#0d0e2d}.cls-8{fill:#4d84fb}.cls-11{fill:#f5f5f5}
        </style>
    </defs>
    <g id="Fake_news" transform="translate(-340.514 -549.816)">
        <path id="Path_228" fill="none" stroke="#36f" stroke-dasharray="3 2" d="M348 614.7s-32.538-97.359 42.867-94.5 107.858-28.158 107.858-28.158" transform="translate(0 79)"/>
        <g id="Group_46" transform="translate(23.942 -44)">
            <path id="Path_29" d="M13.106 160.481c-6.14-18.661-8.625-35.86-6.529-55.394 3.682-37.4 21.646-70.972 47.417-84.267s59.144-6.613 90.778-4.875 61.359-.954 80.824 12.306 28.5 43.156 25.566 70.086a97.561 97.561 0 0 1-32.827 62.143" class="cls-2" transform="translate(318.211 631.979)"/>
            <rect id="Rectangle_572" width="61.359" height="51.065" class="cls-3" rx=".48" transform="translate(390.228 623.909)"/>
            <rect id="Rectangle_573" width="55.189" height="40.088" class="cls-4" rx=".48" transform="translate(393.296 631.954)"/>
            <path id="Path_30" d="M40.19 20.756a2.386 2.386 0 0 1-2.42-2.386 2.42 2.42 0 1 1 4.841 0 2.386 2.386 0 0 1-2.42 2.386zm0-4.193A1.807 1.807 0 1 0 42 18.37a1.807 1.807 0 0 0-1.807-1.807z" class="cls-4" transform="translate(394.25 609.595)"/>
            <path id="Path_32" d="M41.916 20.756a2.4 2.4 0 0 1 0-4.806 2.42 2.42 0 0 1 2.42 2.42 2.386 2.386 0 0 1-2.42 2.386zm0-4.193a1.8 1.8 0 1 0 1.807 1.807 1.807 1.807 0 0 0-1.807-1.807z" class="cls-4" transform="translate(398.489 609.595)"/>
            <path id="Path_33" d="M43.686 20.636a2.319 2.319 0 1 1 0-4.636 2.42 2.42 0 0 1 2.42 2.42 2.386 2.386 0 0 1-2.42 2.216zm0-4.193a1.8 1.8 0 1 0 1.807 1.807 1.807 1.807 0 0 0-1.807-1.807z" class="cls-4" transform="translate(402.753 609.716)"/>
            <circle id="Ellipse_8" cx="14.317" cy="14.317" r="14.317" class="cls-4" transform="translate(406.59 636.965)"/>
            <path id="Path_34" d="M35.12 34.715h2.25a.682.682 0 0 0 .716-.682l.648-12.885a.784.784 0 0 0-.2-.545.716.716 0 0 0-.545-.273h-3.483a.75.75 0 0 0-.511.273.784.784 0 0 0-.2.545l.716 12.885a.716.716 0 0 0 .609.682z" class="cls-5" transform="translate(384.663 620.146)"/>
            <path id="Path_35" d="M36.336 25a2.9 2.9 0 0 0 0 5.761 2.727 2.727 0 0 0 2.829-2.861 2.761 2.761 0 0 0-2.829-2.9z" class="cls-5" transform="translate(384.571 631.395)"/>
            <rect id="Rectangle_574" width="61.291" height="51.133" fill="#bdd0fb" stroke="#4d84fb" stroke-miterlimit="10" stroke-width="0.25px" rx=".48" transform="translate(497.72 727.643)"/>
            <rect id="Rectangle_575" width="55.189" height="40.088" class="cls-4" rx=".48" transform="translate(500.754 735.62)"/>
            <path id="Path_36" d="M71.42 53.031a2.42 2.42 0 1 1 2.42-2.42 2.42 2.42 0 0 1-2.42 2.42zm0-4.227a1.807 1.807 0 1 0 1.807 1.807A1.807 1.807 0 0 0 71.42 48.8z" class="cls-7" transform="translate(470.479 681.056)"/>
            <path id="Path_37" d="M73.17 53.031a2.42 2.42 0 1 1 2.42-2.42 2.42 2.42 0 0 1-2.42 2.42zm0-4.227a1.807 1.807 0 1 0 1.807 1.807A1.807 1.807 0 0 0 73.17 48.8z" class="cls-8" transform="translate(474.694 681.056)"/>
            <path id="Path_38" d="M73.18 53.031a2.42 2.42 0 1 1 2.42-2.42 2.42 2.42 0 0 1-2.42 2.42zm0-4.227a1.807 1.807 0 1 0 1.773 1.807A1.807 1.807 0 0 0 73.18 48.8z" class="cls-7" transform="translate(474.718 681.056)"/>
            <path id="Path_39" d="M74.93 53.031a2.42 2.42 0 1 1 2.42-2.42 2.42 2.42 0 0 1-2.42 2.42zm0-4.227a1.807 1.807 0 1 0 1.77 1.806 1.807 1.807 0 0 0-1.77-1.81z" class="cls-7" transform="translate(478.934 681.056)"/>
            <rect id="Rectangle_576" width="14.522" height="12.749" fill="#669dff" rx=".36" transform="translate(505.56 754.343)"/>
            <rect id="Rectangle_577" width="27.646" height="2.454" class="cls-2" rx=".36" transform="translate(523.491 746.324)"/>
            <rect id="Rectangle_578" width="27.646" height="2.454" class="cls-2" rx=".36" transform="translate(523.491 741.143)"/>
            <rect id="Rectangle_579" width="27.646" height="2.454" class="cls-2" rx=".36" transform="translate(523.491 751.403)"/>
            <rect id="Rectangle_580" width="45.61" height="2.454" class="cls-2" rx=".36" transform="translate(505.56 762.652)"/>
            <rect id="Rectangle_581" width="45.61" height="2.454" class="cls-2" rx=".36" transform="translate(505.56 757.437)"/>
            <rect id="Rectangle_582" width="45.61" height="2.454" class="cls-2" rx=".36" transform="translate(505.56 767.698)"/>
            <g id="Group_45" transform="translate(0 17.317)">
                <path id="Path_44" d="M72.3 26.61a2.182 2.182 0 0 0-1.773-.477L57.1 28.11 80.144 135.8 73.326 28.246A2.216 2.216 0 0 0 72.3 26.61z" class="cls-3" transform="translate(441.813 616.567)"/>
                <path id="Path_45" fill="#757cc1" d="M165.889 24.571L15.149 46.968a2.182 2.182 0 0 0-1.909 2.522l16.295 110.651a2.216 2.216 0 0 0 2.557 1.943l152.989-22.7L168.48 26.446a2.25 2.25 0 0 0-2.591-1.875z" transform="translate(336.092 612.811)"/>
                <path id="Path_46" d="M160.806 27.515a.682.682 0 0 1-.579.784L15.691 49.74a.614.614 0 0 1-.75-.545.648.648 0 0 1 .545-.784L160.022 27a.716.716 0 0 1 .784.579z" class="cls-4" transform="translate(340.221 618.73)"/>
                <path id="Path_47" d="M161.941 35.276a.682.682 0 0 1-.545.784L16.86 57.5a.682.682 0 0 1-.784-.579.648.648 0 0 1 .58-.75L161.191 34.7a.648.648 0 0 1 .75.579z" class="cls-4" transform="translate(342.972 637.252)"/>
                <rect id="Rectangle_583" width="62.587" height="45.61" class="cls-4" rx=".67" transform="matrix(0.989, -0.147, 0.147, 0.989, 363.567, 702.389)"/>
                <rect id="Rectangle_584" width="73.624" height="3.413" class="cls-4" rx=".501" transform="translate(432.091 692.006) rotate(-8.616)"/>
                <rect id="Rectangle_585" width="73.529" height="3.409" class="cls-4" rx=".5" transform="matrix(0.989, -0.147, 0.147, 0.989, 432.761, 700.16)"/>
                <rect id="Rectangle_586" width="73.529" height="3.409" class="cls-4" rx=".5" transform="matrix(0.989, -0.147, 0.147, 0.989, 433.9, 707.984)"/>
                <rect id="Rectangle_587" width="73.529" height="3.409" class="cls-4" rx=".5" transform="matrix(0.989, -0.147, 0.147, 0.989, 435.077, 715.875)"/>
                <rect id="Rectangle_588" width="73.529" height="3.409" class="cls-4" rx=".5" transform="matrix(0.989, -0.147, 0.147, 0.989, 436.269, 723.829)"/>
                <rect id="Rectangle_589" width="73.529" height="3.409" class="cls-4" rx=".5" transform="matrix(0.989, -0.147, 0.147, 0.989, 437.412, 731.721)"/>
                <rect id="Rectangle_590" width="142.422" height="2.863" class="cls-4" rx=".42" transform="matrix(0.989, -0.147, 0.147, 0.989, 371.473, 755.474)"/>
                <rect id="Rectangle_591" width="142.422" height="2.863" class="cls-4" rx=".42" transform="matrix(0.989, -0.147, 0.147, 0.989, 372.611, 763.332)"/>
                <path id="Path_48" d="M24.952 49.887l-3.136.443-2.216-15 8.59-1.261.375 2.591-5.454.818.58 3.886 5.079-.716.375 2.625-5.079.784z" class="cls-11" transform="translate(351.481 635.764)"/>
                <path id="Path_49" d="M34.125 48.37l-1.6-3.409-5.454.818-.58 3.716-3.409.511 3.066-15.816 3.886-.579 7.534 14.249zm-2.761-5.97c-1.466-3.068-2.318-4.806-2.488-5.216s-.341-.75-.443-.989c0 .92-.409 3.17-.954 6.818z" class="cls-11" transform="translate(359.864 634.656)"/>
                <path id="Path_50" d="M41.513 47.8l-3.613.545-4.875-5.727-1.193 1.159.784 5.352-3.17.477-2.216-15 3.17-.477 1.023 6.818.989-1.977 3.409-5.693 3.409-.511L35 40.372z" class="cls-11" transform="translate(369.861 632.633)"/>
                <path id="Path_51" d="M42.088 47.329l-8.522 1.261-2.216-15 8.624-1.261.409 2.591-5.454.818.477 3.409 4.977-.886.375 2.625-5.079.75.579 3.852 5.454-.784z" class="cls-11" transform="translate(379.785 631.573)"/>
                <path id="Path_52" d="M51.88 46.249l-4.022.784-8.215-10.227c.443 1.977.716 3.409.852 4.261l1.057 7.056-2.863.409L36.37 33.4l4.022-.58 8.148 10.224c-.409-1.943-.648-3.409-.784-4.125l-1.056-7.09 2.863-.409z" class="cls-11" transform="translate(391.878 629.381)"/>
                <path id="Path_53" d="M52.292 45.8l-8.727 1.3-2.216-15 8.624-1.261.375 2.591-5.454.818.511 3.409 5.045-.75.409 2.625-5.079.75.58 3.852 5.454-.818z" class="cls-11" transform="translate(403.874 627.984)"/>
                <path id="Path_54" d="M62.985 45.348l-3.613.545-3.2-7.568a12.727 12.727 0 0 0-.648-1.7c-.307-.852-.477-1.4-.579-1.7a17.588 17.588 0 0 1 0 1.807v1.798l-.852 8.147-3.75.511-6.073-14.419 3.136-.443 3.136 8.045c.545 1.466.989 2.727 1.3 3.818v-3.818l.92-8.727 3-.443 3.409 8.079.614 1.67a20.074 20.074 0 0 1 .614 1.943v-4.022l.682-8.488 3.136-.443z" class="cls-11" transform="translate(410.908 625.816)"/>
                <path id="Path_55" d="M61.4 40.059a3.92 3.92 0 0 1-.989 3.409 6.477 6.477 0 0 1-3.886 1.773 9.851 9.851 0 0 1-4.4-.273L51.688 42a16.5 16.5 0 0 0 2.727.579 9.58 9.58 0 0 0 1.977 0 2.9 2.9 0 0 0 1.534-.648 1.364 1.364 0 0 0 .375-1.261 1.227 1.227 0 0 0-.375-.75 1.909 1.909 0 0 0-.818-.545 18.545 18.545 0 0 0-2.079-.75 9.17 9.17 0 0 1-2.25-.92 4.943 4.943 0 0 1-1.3-1.227 4.125 4.125 0 0 1-.682-1.773 3.92 3.92 0 0 1 .886-3.409 5.727 5.727 0 0 1 3.409-1.7 8.557 8.557 0 0 1 2.284 0 16.193 16.193 0 0 1 2.318.443l-.648 2.625a19.807 19.807 0 0 0-2.079-.409 7.909 7.909 0 0 0-1.568 0 2.045 2.045 0 0 0-1.329.648 1.4 1.4 0 0 0-.307 1.159 1.67 1.67 0 0 0 .273.716 3.409 3.409 0 0 0 .716.511 22.635 22.635 0 0 0 2.182.75 8.011 8.011 0 0 1 3.17 1.568 4.057 4.057 0 0 1 1.296 2.452z" class="cls-11" transform="translate(426.431 624.798)"/>
                <path id="Path_56" fill="#36f" d="M30.948 61.551l-.17-1.125a4.977 4.977 0 0 1 .239-2.693 8.249 8.249 0 0 1 1.977-2.693 10.226 10.226 0 0 0 1.875-2.216 2.8 2.8 0 0 0 .273-1.738 1.875 1.875 0 0 0-.954-1.432 3.681 3.681 0 0 0-2.182-.2 12.067 12.067 0 0 0-5.079 2.318L24.71 48.6a15.306 15.306 0 0 1 7.09-3.034 8.147 8.147 0 0 1 5.318.784 5.079 5.079 0 0 1 2.488 3.818 5.488 5.488 0 0 1-.341 3.1 11.147 11.147 0 0 1-2.523 3.409 9.511 9.511 0 0 0-1.636 1.943 2.625 2.625 0 0 0-.17 1.568v.954zm.273 5.42a2.557 2.557 0 0 1 .409-2.079 2.966 2.966 0 0 1 1.943-.989 2.488 2.488 0 0 1 3.1 2.25 2.493 2.493 0 0 1-2.318 3.034 2.863 2.863 0 0 1-2.113-.375 2.761 2.761 0 0 1-1.021-1.841z" transform="translate(363.79 663.098)"/>
                <path id="Union_3" fill="#bdd0fb" d="M-940.094-7419.181a2.9 2.9 0 0 1-1.633-1.554v-.272a3.176 3.176 0 0 1-.034-2.515 3.177 3.177 0 0 1 1.806-1.748l40.255-14.63a22.08 22.08 0 0 1-2.039-9.031 22.157 22.157 0 0 1 21.745-22.426 22.364 22.364 0 0 1 22.567 22.158 22.158 22.158 0 0 1-22.023 22.154 22.145 22.145 0 0 1-18.95-10.455l-39.437 18.234a2.9 2.9 0 0 1-1.23.274 2.9 2.9 0 0 1-1.027-.189zm41.524-30.412a18.921 18.921 0 0 0 18.577 19.143v.17a19.1 19.1 0 0 0 13.609-5.529 19.092 19.092 0 0 0 5.651-13.561 18.92 18.92 0 0 0-18.807-18.916h-.111a18.922 18.922 0 0 0-18.919 18.693z" transform="translate(1275.311 8169.552)"/>
            </g>
        </g>
        <path id="Path_229" d="M502.3 488.262l17.634-17.634-10.114 21.644z" class="cls-8" transform="translate(129.656 -28.349) rotate(14)"/>
        <path id="Path_230" fill="#3b68c8" d="M520.288 475.126l-12.4 18.02-1.287-1.4z" transform="translate(0 79)"/>
    </g>
</svg>
