<svg xmlns="http://www.w3.org/2000/svg" width="253.344" height="198.643" viewBox="0 0 253.344 198.643"><defs><style>.a{fill:none;stroke:#36f;stroke-dasharray:3 2;}.b{fill:#e4e6ff;}.c{fill:#3e63cf;}.d{fill:#fff;}.e{fill:#ef5d60;stroke:#dc493a;}.e,.f{stroke-miterlimit:10;stroke-width:0.25px;}.f,.m{fill:#bdd0fb;}.f{stroke:#4d84fb;}.g{fill:#0d0e2d;}.h{fill:#4d84fb;}.i{fill:#669dff;}.j{fill:#757cc1;}.k{fill:#f5f5f5;}.l{fill:#36f;}.n{fill:#3b68c8;}</style></defs><g transform="translate(-340.514 -549.816)"><path class="a" d="M348,614.7s-32.538-97.359,42.867-94.5,107.858-28.158,107.858-28.158" transform="translate(0 79)"/><g transform="translate(23.942 -44)"><path class="b" d="M13.106,160.481c-6.14-18.661-8.625-35.86-6.529-55.394,3.682-37.4,21.646-70.972,47.417-84.267s59.144-6.613,90.778-4.875,61.359-.954,80.824,12.306,28.5,43.156,25.566,70.086a97.561,97.561,0,0,1-32.827,62.143" transform="translate(318.211 631.979)"/><rect class="c" width="61.359" height="51.065" rx="0.48" transform="translate(390.228 623.909)"/><rect class="d" width="55.189" height="40.088" rx="0.48" transform="translate(393.296 631.954)"/><path class="d" d="M40.19,20.756a2.386,2.386,0,0,1-2.42-2.386,2.42,2.42,0,1,1,4.841,0,2.386,2.386,0,0,1-2.42,2.386Zm0-4.193A1.807,1.807,0,1,0,42,18.37a1.807,1.807,0,0,0-1.807-1.807Z" transform="translate(394.25 609.595)"/><path class="d" d="M41.916,20.756a2.4,2.4,0,0,1,0-4.806,2.42,2.42,0,0,1,2.42,2.42,2.386,2.386,0,0,1-2.42,2.386Zm0-4.193a1.8,1.8,0,1,0,1.807,1.807,1.807,1.807,0,0,0-1.807-1.807Z" transform="translate(398.489 609.595)"/><path class="d" d="M43.686,20.636a2.319,2.319,0,1,1,0-4.636,2.42,2.42,0,0,1,2.42,2.42A2.386,2.386,0,0,1,43.686,20.636Zm0-4.193a1.8,1.8,0,1,0,1.807,1.807,1.807,1.807,0,0,0-1.807-1.807Z" transform="translate(402.753 609.716)"/><ellipse class="d" cx="14.317" cy="14.317" rx="14.317" ry="14.317" transform="translate(406.59 636.965)"/><path class="e" d="M35.12,34.715h2.25a.682.682,0,0,0,.716-.682l.648-12.885a.784.784,0,0,0-.2-.545.716.716,0,0,0-.545-.273H34.506a.75.75,0,0,0-.511.273.784.784,0,0,0-.2.545l.716,12.885A.716.716,0,0,0,35.12,34.715Z" transform="translate(384.663 620.146)"/><path class="e" d="M36.336,25a2.9,2.9,0,0,0,0,5.761A2.727,2.727,0,0,0,39.165,27.9,2.761,2.761,0,0,0,36.336,25Z" transform="translate(384.571 631.395)"/><rect class="f" width="61.291" height="51.133" rx="0.48" transform="translate(497.72 727.643)"/><rect class="d" width="55.189" height="40.088" rx="0.48" transform="translate(500.754 735.62)"/><path class="g" d="M71.42,53.031a2.42,2.42,0,1,1,2.42-2.42A2.42,2.42,0,0,1,71.42,53.031Zm0-4.227a1.807,1.807,0,1,0,1.807,1.807A1.807,1.807,0,0,0,71.42,48.8Z" transform="translate(470.479 681.056)"/><path class="h" d="M73.17,53.031a2.42,2.42,0,1,1,2.42-2.42A2.42,2.42,0,0,1,73.17,53.031Zm0-4.227a1.807,1.807,0,1,0,1.807,1.807A1.807,1.807,0,0,0,73.17,48.8Z" transform="translate(474.694 681.056)"/><path class="g" d="M73.18,53.031a2.42,2.42,0,1,1,2.42-2.42A2.42,2.42,0,0,1,73.18,53.031Zm0-4.227a1.807,1.807,0,1,0,1.773,1.807A1.807,1.807,0,0,0,73.18,48.8Z" transform="translate(474.718 681.056)"/><path class="g" d="M74.93,53.031a2.42,2.42,0,1,1,2.42-2.42A2.42,2.42,0,0,1,74.93,53.031Zm0-4.227A1.807,1.807,0,1,0,76.7,50.61,1.807,1.807,0,0,0,74.93,48.8Z" transform="translate(478.934 681.056)"/><rect class="i" width="14.522" height="12.749" rx="0.36" transform="translate(505.56 754.343)"/><rect class="b" width="27.646" height="2.454" rx="0.36" transform="translate(523.491 746.324)"/><rect class="b" width="27.646" height="2.454" rx="0.36" transform="translate(523.491 741.143)"/><rect class="b" width="27.646" height="2.454" rx="0.36" transform="translate(523.491 751.403)"/><rect class="b" width="45.61" height="2.454" rx="0.36" transform="translate(505.56 762.652)"/><rect class="b" width="45.61" height="2.454" rx="0.36" transform="translate(505.56 757.437)"/><rect class="b" width="45.61" height="2.454" rx="0.36" transform="translate(505.56 767.698)"/><g transform="translate(0 17.317)"><path class="c" d="M72.3,26.61a2.182,2.182,0,0,0-1.773-.477L57.1,28.11,80.144,135.8,73.326,28.246A2.216,2.216,0,0,0,72.3,26.61Z" transform="translate(441.813 616.567)"/><path class="j" d="M165.889,24.571,15.149,46.968A2.182,2.182,0,0,0,13.24,49.49L29.535,160.141a2.216,2.216,0,0,0,2.557,1.943l152.989-22.7L168.48,26.446a2.25,2.25,0,0,0-2.591-1.875Z" transform="translate(336.092 612.811)"/><path class="d" d="M160.806,27.515a.682.682,0,0,1-.579.784L15.691,49.74a.614.614,0,0,1-.75-.545h0a.648.648,0,0,1,.545-.784L160.022,27a.716.716,0,0,1,.784.579Z" transform="translate(340.221 618.73)"/><path class="d" d="M161.941,35.276a.682.682,0,0,1-.545.784L16.86,57.5a.682.682,0,0,1-.784-.579h0a.648.648,0,0,1,.58-.75L161.191,34.7a.648.648,0,0,1,.75.579Z" transform="translate(342.972 637.252)"/><rect class="d" width="62.587" height="45.61" rx="0.67" transform="matrix(0.989, -0.147, 0.147, 0.989, 363.567, 702.389)"/><rect class="d" width="73.624" height="3.413" rx="0.501" transform="translate(432.091 692.006) rotate(-8.616)"/><rect class="d" width="73.529" height="3.409" rx="0.5" transform="matrix(0.989, -0.147, 0.147, 0.989, 432.761, 700.16)"/><rect class="d" width="73.529" height="3.409" rx="0.5" transform="matrix(0.989, -0.147, 0.147, 0.989, 433.9, 707.984)"/><rect class="d" width="73.529" height="3.409" rx="0.5" transform="matrix(0.989, -0.147, 0.147, 0.989, 435.077, 715.875)"/><rect class="d" width="73.529" height="3.409" rx="0.5" transform="matrix(0.989, -0.147, 0.147, 0.989, 436.269, 723.829)"/><rect class="d" width="73.529" height="3.409" rx="0.5" transform="matrix(0.989, -0.147, 0.147, 0.989, 437.412, 731.721)"/><rect class="d" width="142.422" height="2.863" rx="0.42" transform="matrix(0.989, -0.147, 0.147, 0.989, 371.473, 755.474)"/><rect class="d" width="142.422" height="2.863" rx="0.42" transform="matrix(0.989, -0.147, 0.147, 0.989, 372.611, 763.332)"/><path class="k" d="M24.952,49.887l-3.136.443-2.216-15,8.59-1.261.375,2.591-5.454.818.58,3.886,5.079-.716.375,2.625-5.079.784Z" transform="translate(351.481 635.764)"/><path class="k" d="M34.125,48.37l-1.6-3.409-5.454.818-.58,3.716-3.409.511L26.148,34.19l3.886-.579,7.534,14.249ZM31.364,42.4c-1.466-3.068-2.318-4.806-2.488-5.216s-.341-.75-.443-.989c0,.92-.409,3.17-.954,6.818Z" transform="translate(359.864 634.656)"/><path class="k" d="M41.513,47.8l-3.613.545-4.875-5.727-1.193,1.159.784,5.352-3.17.477-2.216-15,3.17-.477,1.023,6.818.989-1.977,3.409-5.693,3.409-.511L35,40.372Z" transform="translate(369.861 632.633)"/><path class="k" d="M42.088,47.329,33.566,48.59l-2.216-15,8.624-1.261.409,2.591-5.454.818.477,3.409,4.977-.886.375,2.625-5.079.75.579,3.852,5.454-.784Z" transform="translate(379.785 631.573)"/><path class="k" d="M51.88,46.249l-4.022.784L39.643,36.806h0c.443,1.977.716,3.409.852,4.261l1.057,7.056-2.863.409L36.37,33.4l4.022-.58L48.54,43.044h0c-.409-1.943-.648-3.409-.784-4.125L46.7,31.829l2.863-.409Z" transform="translate(391.878 629.381)"/><path class="k" d="M52.292,45.8l-8.727,1.3-2.216-15,8.624-1.261.375,2.591-5.454.818.511,3.409,5.045-.75.409,2.625-5.079.75.58,3.852,5.454-.818Z" transform="translate(403.874 627.984)"/><path class="k" d="M62.985,45.348l-3.613.545-3.2-7.568a12.727,12.727,0,0,0-.648-1.7c-.307-.852-.477-1.4-.579-1.7a17.588,17.588,0,0,1,0,1.807V38.53l-.852,8.147-3.75.511L44.27,32.769l3.136-.443,3.136,8.045c.545,1.466.989,2.727,1.3,3.818V40.371l.92-8.727,3-.443,3.409,8.079.614,1.67a20.074,20.074,0,0,1,.614,1.943q0-.818,0-2.045V38.871l.682-8.488,3.136-.443Z" transform="translate(410.908 625.816)"/><path class="k" d="M61.4,40.059a3.92,3.92,0,0,1-.989,3.409,6.477,6.477,0,0,1-3.886,1.773,9.851,9.851,0,0,1-4.4-.273L51.688,42a16.5,16.5,0,0,0,2.727.579,9.58,9.58,0,0,0,1.977,0,2.9,2.9,0,0,0,1.534-.648,1.364,1.364,0,0,0,.375-1.261,1.227,1.227,0,0,0-.375-.75,1.909,1.909,0,0,0-.818-.545,18.545,18.545,0,0,0-2.079-.75,9.17,9.17,0,0,1-2.25-.92,4.943,4.943,0,0,1-1.3-1.227,4.125,4.125,0,0,1-.682-1.773,3.92,3.92,0,0,1,.886-3.409,5.727,5.727,0,0,1,3.409-1.7,8.557,8.557,0,0,1,2.284,0,16.193,16.193,0,0,1,2.318.443l-.648,2.625a19.807,19.807,0,0,0-2.079-.409,7.909,7.909,0,0,0-1.568,0,2.045,2.045,0,0,0-1.329.648,1.4,1.4,0,0,0-.307,1.159,1.67,1.67,0,0,0,.273.716,3.409,3.409,0,0,0,.716.511,22.635,22.635,0,0,0,2.182.75,8.011,8.011,0,0,1,3.17,1.568A4.057,4.057,0,0,1,61.4,40.059Z" transform="translate(426.431 624.798)"/><path class="l" d="M30.948,61.551l-.17-1.125a4.977,4.977,0,0,1,.239-2.693,8.249,8.249,0,0,1,1.977-2.693,10.226,10.226,0,0,0,1.875-2.216,2.8,2.8,0,0,0,.273-1.738,1.875,1.875,0,0,0-.954-1.432,3.681,3.681,0,0,0-2.182-.2,12.067,12.067,0,0,0-5.079,2.318L24.71,48.6a15.306,15.306,0,0,1,7.09-3.034,8.147,8.147,0,0,1,5.318.784,5.079,5.079,0,0,1,2.488,3.818,5.488,5.488,0,0,1-.341,3.1,11.147,11.147,0,0,1-2.523,3.409,9.511,9.511,0,0,0-1.636,1.943,2.625,2.625,0,0,0-.17,1.568v.954Zm.273,5.42a2.557,2.557,0,0,1,.409-2.079,2.966,2.966,0,0,1,1.943-.989,2.488,2.488,0,0,1,3.1,2.25,2.493,2.493,0,0,1-2.318,3.034,2.863,2.863,0,0,1-2.113-.375A2.761,2.761,0,0,1,31.221,66.971Z" transform="translate(363.79 663.098)"/><path class="m" d="M51.645,51.53,10.568,66.461A3.17,3.17,0,0,0,8.8,70.722v.273a2.9,2.9,0,0,0,3.886,1.466L52.565,54.018Z" transform="translate(324.788 677.823)"/><path class="m" d="M42.079,42.391A22.158,22.158,0,1,0,64.645,64.548,22.158,22.158,0,0,0,42.079,42.391Zm0,40.906a7.894,7.894,0,1,1,0,.17Z" transform="translate(353.24 655.805)"/></g></g><path class="h" d="M502.3,488.262l17.634-17.634-10.114,21.644Z" transform="translate(129.656 -28.349) rotate(14)"/><path class="n" d="M520.288,475.126l-12.4,18.02-1.287-1.4Z" transform="translate(0 79)"/></g></svg>