<svg xmlns="http://www.w3.org/2000/svg" width="216.08" height="174.839" viewBox="0 0 216.08 174.839"><defs><style>.a{fill:none;stroke:#3e63cf;}.a,.k{stroke-miterlimit:10;}.b{fill:#bdd0fb;}.c{fill:#4d84fb;}.d{fill:#e4e6ff;}.d,.l{fill-rule:evenodd;}.e{fill:#bec1e1;}.f{fill:#3c4498;}.g{fill:#757cc1;}.h{fill:#fff;}.i{fill:#bec2e9;}.j{fill:#a7aefb;}.k,.l,.m{fill:#3e63cf;}.k{stroke:#fff;stroke-width:0.25px;}</style></defs><g transform="translate(-893 -570.193)"><g transform="translate(893 570.697)"><path class="a" d="M56.64,53.428a.481.481,0,0,0,.449.385l6.158.417a26.719,26.719,0,0,0,5.389,6.9l-1.155,6.03a.545.545,0,0,0,.257.545l6.415,3.657a.449.449,0,0,0,.577,0l4.619-4.041a26.526,26.526,0,0,0,8.628,1.123l3.464,5.068a.481.481,0,0,0,.545.225l7.121-1.925a.545.545,0,0,0,.385-.481L99.91,65.2a26.719,26.719,0,0,0,6.864-5.324l6.062,1.155a.449.449,0,0,0,.513-.225l3.689-6.415a.481.481,0,0,0-.289-.481L112.836,49.1a26.3,26.3,0,0,0,1.091-8.6l5.1-3.464a.545.545,0,0,0,.225-.545l-1.957-7.153a.449.449,0,0,0-.449-.353l-6.126-.417a26.847,26.847,0,0,0-5.324-6.736l1.155-6.03a.577.577,0,0,0-.225-.545L99.91,11.6a.481.481,0,0,0-.577,0l-4.651,3.817A26.4,26.4,0,0,0,86.053,14.3L82.621,9.325A.545.545,0,0,0,82.044,9l-6.992,2.053a.513.513,0,0,0-.353.449l-.417,6.158a27.456,27.456,0,0,0-6.9,5.292l-6.158-1.123a.513.513,0,0,0-.545.257l-3.689,6.415a.545.545,0,0,0,0,.577l4.041,4.651a27.168,27.168,0,0,0-1.091,8.6l-5.1,3.464a.513.513,0,0,0-.192.545Z" transform="translate(96.316 -8.998)"/><path class="b" d="M64.47,19.045a7.483,7.483,0,1,1-.706.866,8.825,8.825,0,0,1,.706-.866ZM75.5,24.113a5.709,5.709,0,1,0-1.6,4.041,5.226,5.226,0,0,0,.545-.642,5.613,5.613,0,0,0,1.059-3.4Z" transform="translate(113.472 8.192)"/><path class="c" d="M61.87,20.886c-.353.481-.674,1.026-.994,1.572h0l-.289.513a16.616,16.616,0,0,0-1.155,2.694h0v.225a.417.417,0,0,0,0,.481h0a.449.449,0,0,0,.545-.289,16.777,16.777,0,0,1,1.475-3.4,17.417,17.417,0,0,1,14.306-8.692,17.128,17.128,0,0,1,9.43,2.277,14.95,14.95,0,0,1,1.508.962A17.385,17.385,0,0,1,67.9,46.417a14.947,14.947,0,0,1-1.508-.962,17.129,17.129,0,0,1-4.972-5.421h0a.449.449,0,0,0-.481,0,.417.417,0,0,0-.16.577,17.962,17.962,0,0,0,5.292,5.9,16.039,16.039,0,0,0,1.54,1.026A18.264,18.264,0,0,0,87.37,16.876c-.513-.353-1.026-.706-1.572-1.026a18.347,18.347,0,0,0-23.928,5.2Z" transform="translate(106.738 0.835)"/><path class="d" d="M16.833,170.549S-4.4,145.21,20.393,123.271c0,0-22.26-24.794-8.115-52.924S53.783,44.687,75.53,50.3a72.875,72.875,0,0,0,71.848-19.566c21.747-22.453,47.022-17.641,56.645-7.153s12.124,32.075,1.508,53.437-4.555,35.283,4.555,45.771,10.136,39.709-11.643,47.76Z" transform="translate(-7.573 3.785)"/><path class="e" d="M51.076,40.18H19a1.251,1.251,0,0,1-1.251-1.251h0A1.251,1.251,0,0,1,19,37.71H51.076a1.219,1.219,0,0,1,1.219,1.219h0a1.219,1.219,0,0,1-1.219,1.251Z" transform="translate(14.892 54.383)"/><path class="e" d="M48.936,41.7H16.861a1.251,1.251,0,0,1-1.251-1.219h0a1.251,1.251,0,0,1,1.251-1.251H48.936a1.219,1.219,0,0,1,1.251,1.251h0A1.219,1.219,0,0,1,48.936,41.7Z" transform="translate(10.168 57.738)"/><path class="e" d="M42.053,44.722h-22.9A1.283,1.283,0,0,1,17.9,43.471h0a1.283,1.283,0,0,1,1.251-1.251h22.9a1.251,1.251,0,0,1,1.219,1.251h0A1.251,1.251,0,0,1,42.053,44.722Z" transform="translate(15.223 64.339)"/><path class="e" d="M51.274,43.2H19.2a1.219,1.219,0,0,1-1.219-1.219h0A1.251,1.251,0,0,1,19.2,40.73H51.274a1.251,1.251,0,0,1,1.219,1.251h0A1.219,1.219,0,0,1,51.274,43.2Z" transform="translate(15.4 61.05)"/><rect class="f" width="130.802" height="86.956" rx="3.13" transform="translate(82.904 60.371)"/><path class="g" d="M37.141,27.822H160.374a3.721,3.721,0,0,1,3.849,3.785v71.271H33.42V31.606a3.721,3.721,0,0,1,3.721-3.785Z" transform="translate(49.484 32.55)"/><path class="h" d="M59.322,55.413h-5.2a1.508,1.508,0,0,1-1.475-1.475h0a1.508,1.508,0,0,1,1.476-1.508h5.2a1.508,1.508,0,0,1,1.508,1.508h0a1.508,1.508,0,0,1-1.508,1.475Z" transform="translate(91.934 86.878)"/><path class="f" d="M73.76,68.722V54.93h-17.8V68.722a7.057,7.057,0,0,1-7.089,7.057h0v5.934H81.362V75.779h-.449a7.057,7.057,0,0,1-7.153-7.057Z" transform="translate(83.59 92.397)"/><rect class="h" width="120.763" height="64.086" transform="translate(87.747 65.15)"/><rect class="h" width="122.014" height="65.145" transform="translate(87.106 64.509)"/><rect class="i" width="122.014" height="8.468" transform="translate(87.106 64.509)"/><rect class="h" width="98.727" height="3.721" rx="0.58" transform="translate(90.474 66.818)"/><path class="h" d="M71.286,31.6a1.748,1.748,0,1,1-1.732-1.732A1.732,1.732,0,0,1,71.286,31.6Z" transform="translate(125.356 37.076)"/><path class="h" d="M72.8,31.6a1.748,1.748,0,1,1-1.732-1.732A1.732,1.732,0,0,1,72.8,31.6Z" transform="translate(128.69 37.076)"/><path class="h" d="M74.316,31.6a1.748,1.748,0,1,1-3.5,0,1.732,1.732,0,0,1,1.732-1.732A1.764,1.764,0,0,1,74.316,31.6Z" transform="translate(132.045 37.076)"/><rect class="j" width="65.177" height="19.47" transform="translate(90.474 78.429)"/><rect class="j" width="65.177" height="14.53" transform="translate(90.474 107.65)"/><rect class="j" width="46.381" height="14.53" transform="translate(158.216 107.65)"/><rect class="j" width="44.649" height="19.47" transform="translate(159.948 78.429)"/><ellipse class="k" cx="4.907" cy="4.907" rx="4.907" ry="4.907" transform="translate(95.477 92.222)"/><path class="l" d="M23.584,19.53H75.353a6.864,6.864,0,0,1,6.832,6.864V74.731a.738.738,0,0,1-1.283.545L69.227,63.6H23.584a6.864,6.864,0,0,1-6.864-6.864V26.394a6.864,6.864,0,0,1,6.864-6.864Z" transform="translate(12.618 14.251)"/><path class="h" d="M42.268,45.192a6.736,6.736,0,0,0,2.726-1.058,6.415,6.415,0,0,0,2.5-3.208,8.243,8.243,0,0,1-4.234.385A9.622,9.622,0,0,0,49,38.1a7.506,7.506,0,0,0,1.732-4.587,9.623,9.623,0,0,1-5.292,1.957,9.623,9.623,0,0,0,4.234-4.811,6.062,6.062,0,0,0,.353-4.3A15.717,15.717,0,0,1,38.066,30.79v-1.8h0a6.223,6.223,0,0,0-11.483-3.5,14.338,14.338,0,0,1-3.015-1.732,6.672,6.672,0,0,0,1.925,3.208,10.328,10.328,0,0,1-2.662-1.091,6.575,6.575,0,0,0,2.694,3.047A19.245,19.245,0,0,0,49.035,50.549a17.449,17.449,0,0,1-6.768-5.357Z" transform="translate(26.106 21.017)"/><path class="m" d="M44.9,51.06H72.519a1.86,1.86,0,0,1,1.86,1.925L73.1,86.15a1.86,1.86,0,0,1-1.86,1.764H25.208a1.828,1.828,0,0,1-1.925-1.764L22,52.985a1.86,1.86,0,0,1,1.86-1.925H44.934Z" transform="translate(6.048 92.977) rotate(-17)"/><path class="j" d="M70.745,54.2l-.609-2.6a1.892,1.892,0,0,0-1.8-1.379H55.734A1.828,1.828,0,0,0,53.97,51.6l-.706,2.6a1.86,1.86,0,0,1-1.8,1.379H23.851a1.86,1.86,0,0,0-1.86,1.925l1.315,33.262a1.86,1.86,0,0,0,1.86,1.8H71.258a1.892,1.892,0,0,0,1.86-1.8L74.4,57.5a1.86,1.86,0,0,0-1.86-1.924h0a1.86,1.86,0,0,1-1.8-1.379Z" transform="translate(5.485 92.21) rotate(-17)"/><rect class="h" width="19.149" height="4.491" rx="0.7" transform="translate(77.506 157.326) rotate(-17)"/></g></g></svg>