<svg xmlns="http://www.w3.org/2000/svg" width="223.628" height="173.391" viewBox="0 0 223.628 173.391">
    <defs>
        <style>
            .cls-2{fill:#a7aefb}.cls-3{fill:#fff}.cls-4{fill:#4d84fb}.cls-5{fill:#5863cf}.cls-6{fill:#3c4498}.cls-7{fill:#034491}.cls-8{fill:#3e63cf}.cls-11{fill:#36f}.cls-12{fill:#bdd0fb}
        </style>
    </defs>
    <g id="Legal_Actions" transform="translate(-1361.44 -571.865)">
        <g id="Legal_Actions-03" transform="translate(1362 571.865)">
            <path id="Path_78" fill="#e4e6ff" d="M21.729 183.694C3.57 148.8 8.769 97.991 30.916 64.165c3.2-4.878 30.23-45.006 73.455-50.632l2.528-.285c6.694-.712 48.139-4.451 81.894 23.856a101.085 101.085 0 0 1 19.833 22.5c23.5 36.283 26.135 90.3 2.742 126.117" transform="translate(-10.731 -12.694)"/>
            <rect id="Rectangle_602" width="58.999" height="49.208" class="cls-2" rx=".44" transform="rotate(14.98 -106.328 60.97)"/>
            <rect id="Rectangle_603" width="53.124" height="38.561" class="cls-3" rx=".44" transform="rotate(14.98 -136.999 68.332)"/>
            <path id="Path_79" d="M26.259 26.174A1.282 1.282 0 1 1 27.54 25a1.282 1.282 0 0 1-1.282 1.175z" class="cls-4" transform="rotate(14.98 -36.547 151.099)"/>
            <path id="Path_80" d="M27.152 26.174a1.282 1.282 0 1 1 1.282-1.282 1.282 1.282 0 0 1-1.282 1.282z" class="cls-4" transform="rotate(14.98 -37.687 159.735)"/>
            <path id="Path_81" d="M28.112 26.174a1.282 1.282 0 1 1 1.282-1.282 1.282 1.282 0 0 1-1.282 1.282z" class="cls-4" transform="rotate(14.98 -38.922 169.063)"/>
            <rect id="Rectangle_604" width="13.958" height="12.248" class="cls-5" rx=".33" transform="rotate(14.98 -159.434 83.107)"/>
            <rect id="Rectangle_605" width="26.633" height="2.386" class="cls-5" rx=".33" transform="rotate(14.98 -187.141 146.13)"/>
            <rect id="Rectangle_606" width="26.633" height="2.386" class="cls-5" rx=".33" transform="rotate(14.98 -168.09 148.645)"/>
            <rect id="Rectangle_607" width="26.633" height="2.386" class="cls-5" rx=".33" transform="rotate(14.98 -205.522 143.702)"/>
            <rect id="Rectangle_608" width="43.902" height="2.386" class="cls-5" rx=".33" transform="rotate(14.98 -237.95 72.739)"/>
            <rect id="Rectangle_609" width="43.902" height="2.386" class="cls-5" rx=".33" transform="rotate(14.98 -218.893 75.256)"/>
            <rect id="Rectangle_610" width="43.902" height="2.386" class="cls-5" rx=".33" transform="rotate(14.98 -256.46 70.296)"/>
            <ellipse id="Ellipse_10" cx="4.807" cy="4.13" class="cls-2" rx="4.807" ry="4.13" transform="rotate(-64.07 194.087 -8.474)"/>
            <rect id="Rectangle_611" width="5.412" height="3.561" class="cls-6" rx=".34" transform="rotate(-64.07 191.483 -9.181)"/>
            <path id="Path_82" d="M89.162 79.095a11.465 11.465 0 0 1-2.528 5.2 3.1 3.1 0 0 1-2.991 1C72.961 83.118 50.352 69.2 28.454 57.019c-1.46-.819-2.457-1.745-1.745-3.133l1.5-3.1c.677-1.424 2.314-.605 3.845 0 23.144 9.507 47.712 17.8 56.151 25.494a3.062 3.062 0 0 1 .961 2.813z" class="cls-2" transform="translate(29.58 82.825)"/>
            <rect id="Rectangle_612" width="12.32" height="3.596" class="cls-6" rx=".08" transform="rotate(-64.07 137.999 27.647)"/>
            <rect id="Rectangle_613" width="12.32" height="3.596" class="cls-6" rx=".08" transform="rotate(-64.07 118.185 40.59)"/>
            <path id="Rectangle_614" d="M0 0H37.03V25.102H0z" class="cls-2" transform="rotate(-64.07 126.253 51.43)"/>
            <path id="Rectangle_615" d="M0 0H4.664V25.102H0z" class="cls-6" transform="rotate(-64.07 127.592 53.594)"/>
            <path id="Path_83" d="M41.187 63.7l-1 2.1a1.5 1.5 0 0 1-1.709.748A70.215 70.215 0 0 1 17.9 56.791a1.389 1.389 0 0 1-.463-1.78l1.033-2.1z" class="cls-2" transform="translate(6.058 90.281)"/>
            <rect id="Rectangle_616" width="2.564" height="26.883" class="cls-7" rx=".09" transform="rotate(-64.07 124.836 51.235)"/>
            <rect id="Rectangle_617" width="1.887" height="26.883" class="cls-3" rx=".08" transform="rotate(-64.07 124.658 50.95)"/>
            <path id="Rectangle_618" d="M0 0H4.664V25.102H0z" class="cls-6" transform="rotate(115.93 -3.345 78.394)"/>
            <path id="Path_84" d="M45.164 55.668l1-2.065a1.424 1.424 0 0 0-.463-1.816 70.108 70.108 0 0 0-20.4-9.9 1.389 1.389 0 0 0-1.673.712L22.59 44.7z" class="cls-2" transform="translate(19.635 61.887)"/>
            <rect id="Rectangle_619" width="2.564" height="26.883" class="cls-6" rx=".09" transform="rotate(-64.07 107.45 23.406)"/>
            <rect id="Rectangle_620" width="1.887" height="26.883" class="cls-3" rx=".08" transform="rotate(-64.07 107.272 23.122)"/>
            <path id="Rectangle_621" d="M0 0H51.985V12.035H0z" class="cls-3" transform="translate(9.895 160.425)"/>
            <path id="Rectangle_622" d="M0 0H51.985V4.878H0z" class="cls-8" transform="translate(9.895 160.425)"/>
            <path id="Rectangle_623" d="M0 0H51.985V5.092H0z" class="cls-8" transform="translate(9.895 167.225)"/>
            <path id="Path_85" d="M55.32 55.542a.57.57 0 0 0 .392.463l1.175.249a.5.5 0 0 0 .57-.392.534.534 0 0 0-.392-.57l-1.139-.214a.427.427 0 0 0-.57.32.285.285 0 0 0-.036.144z" class="cls-7" transform="translate(103.443 95.767)"/>
            <path id="Path_86" d="M56.35 73.358a.5.5 0 0 1 .5-.463 18.8 18.8 0 0 0 1.994 0h.427a.482.482 0 1 1 .071.961h-2.565a.427.427 0 0 1-.427-.427zm5.341-.783a17.478 17.478 0 0 0 2.35-.605.5.5 0 0 1 .605.32.463.463 0 0 1-.285.605c-.819.249-1.638.463-2.492.641a.534.534 0 0 1-.57-.392.534.534 0 0 1 .392-.57zm4.629-1.5a15.31 15.31 0 0 0 2.136-1.139.478.478 0 0 1 .676.676 22.465 22.465 0 0 1-2.243 1.211.5.5 0 0 1-.641-.249.57.57 0 0 1 .071-.5zm4.13-2.457c.605-.5 1.211-1.068 1.78-1.638a.463.463 0 0 1 .676 0 .5.5 0 0 1 0 .677 21.367 21.367 0 0 1-1.852 1.745.463.463 0 0 1-.677 0 2.781 2.781 0 0 1 .071-.783zm3.35-3.557a15.239 15.239 0 0 0 1.317-2.03.534.534 0 0 1 .677 0 .5.5 0 0 1 0 .676q-.641 1.068-1.389 2.136a.463.463 0 0 1-.677 0 .392.392 0 0 1-.214-.356.57.57 0 0 1 .286-.426zm2.421-4.2c.285-.748.57-1.531.783-2.314a.463.463 0 0 1 .605-.32.5.5 0 0 1 .32.605 14.67 14.67 0 0 1-.855 2.386.456.456 0 0 1-.89-.142.249.249 0 0 1 .036-.285zM77.5 56.2a19.088 19.088 0 0 0 .214-2.421.5.5 0 0 1 .5-.5.534.534 0 0 1 .463.5 15.567 15.567 0 0 1-.214 2.564.485.485 0 0 1-.961-.071zm0-7.833a.463.463 0 0 1 .57.356c0 .712.285 1.46.356 2.172a1.1 1.1 0 0 1 0 .356.427.427 0 0 1-.427.5.463.463 0 0 1-.534-.427 1 1 0 0 0 0-.32 20.684 20.684 0 0 0-.32-2.065.463.463 0 0 1 .463-.641z" class="cls-7" transform="translate(106.081 78.45)"/>
            <path id="Path_87" d="M51.038 63.4a14.6 14.6 0 0 1 0-2.492.463.463 0 1 1 .926 0v2.386a.465.465 0 1 1-.926.036zm.605 1.958a.5.5 0 0 1 .57.392 17.2 17.2 0 0 0 .5 2.35.5.5 0 0 1-.32.605.463.463 0 0 1-.605-.356 24.928 24.928 0 0 1-.534-2.457.5.5 0 0 1 .39-.535zm-.178-6.943a18.764 18.764 0 0 1 .677-2.421.473.473 0 0 1 .89.32c-.249.748-.463 1.531-.641 2.314a.463.463 0 0 1-.57.356.427.427 0 0 1-.356-.427zm1.389 11.679a.534.534 0 0 1 .641.285c.32.712.677 1.46 1.068 2.136a.5.5 0 0 1-.178.641.463.463 0 0 1-.677-.178 21.863 21.863 0 0 1-1.1-2.243.57.57 0 0 1 .249-.641zm.246-16.416a16.344 16.344 0 0 1 1.246-2.172.463.463 0 0 1 .641 0 .427.427 0 0 1 0 .641c-.427.677-.819 1.389-1.175 2.1a.463.463 0 0 1-.641.214.5.5 0 0 1-.249-.392.534.534 0 0 1 .178-.392zm2.742-4.2a20.616 20.616 0 0 1 1.709-1.816.5.5 0 0 1 .677 0 .463.463 0 0 1 0 .677c-.57.57-1.1 1.139-1.638 1.745a.463.463 0 0 1-.677 0 .57.57 0 0 1 0-.356.427.427 0 0 1-.071-.249zm3.561-3.561a19.085 19.085 0 0 1 2.314-1.211.463.463 0 0 1 .676 0 .5.5 0 0 1 0 .641 19.586 19.586 0 0 0-2.03 1.282.463.463 0 0 1-.677 0 .855.855 0 0 1 0-.285.392.392 0 0 1-.214-.214z" class="cls-7" transform="translate(92.343 68.897)"/>
            <path id="Path_88" d="M52.11 53.36v.285l.783.961a.467.467 0 1 0 .712-.606c-.249-.32-.5-.605-.712-.926a.445.445 0 0 0-.783.285z" class="cls-7" transform="translate(95.224 90.365)"/>
            <rect id="Rectangle_624" width="145.201" height="96.528" class="cls-6" rx="1.59" transform="translate(77.867 35.483)"/>
            <path id="Path_89" fill="#757cc1" d="M36.766 22.66h136.905a4.13 4.13 0 0 1 4.13 4.13v79.223H32.6V26.826a4.13 4.13 0 0 1 4.166-4.166z" transform="translate(45.266 12.823)"/>
            <path id="Path_90" d="M59.272 50.591H53.5a1.673 1.673 0 0 1-1.674-1.673A1.674 1.674 0 0 1 53.5 47.28h5.768a1.673 1.673 0 0 1 1.638 1.638 1.674 1.674 0 0 1-1.638 1.673z" class="cls-3" transform="translate(94.507 75.865)"/>
            <path id="Rectangle_625" d="M0 0H134.057V71.141H0z" class="cls-3" transform="translate(83.243 40.824)"/>
            <path id="Rectangle_626" d="M0 0H135.445V72.316H0z" class="cls-3" transform="translate(82.531 40.112)"/>
            <path id="Rectangle_627" fill="#bec2e9" d="M0 0H135.445V9.4H0z" transform="translate(82.531 40.112)"/>
            <rect id="Rectangle_628" width="109.595" height="4.13" class="cls-3" rx=".58" transform="translate(86.305 42.676)"/>
            <path id="Path_91" d="M70.861 26.668a1.958 1.958 0 0 1-1.961 1.923 1.923 1.923 0 0 1-1.923-1.923 1.941 1.941 0 1 1 3.881 0z" class="cls-11" transform="translate(133.3 18.072)"/>
            <path id="Path_92" d="M72.371 26.668a1.958 1.958 0 0 1-1.958 1.923 1.923 1.923 0 0 1-1.923-1.923 1.941 1.941 0 1 1 3.881 0z" class="cls-11" transform="translate(137.167 18.072)"/>
            <path id="Path_93" d="M73.881 26.668a1.958 1.958 0 0 1-1.958 1.923A1.923 1.923 0 0 1 70 26.668a1.941 1.941 0 1 1 3.881 0z" class="cls-11" transform="translate(141.033 18.072)"/>
            <rect id="Rectangle_629" width="109.239" height="8.261" class="cls-11" rx="1.16" transform="translate(95.1 61.689)"/>
            <path id="Rectangle_630" d="M0 0H9.08V0.855H0z" class="cls-3" transform="translate(100.726 65.82)"/>
            <path id="Rectangle_631" d="M0 0H9.08V0.855H0z" class="cls-3" transform="translate(111.941 65.82)"/>
            <path id="Rectangle_632" d="M0 0H9.08V0.855H0z" class="cls-3" transform="translate(123.122 65.82)"/>
            <path id="Rectangle_633" d="M0 0H9.08V0.855H0z" class="cls-3" transform="translate(134.338 65.82)"/>
            <path id="Rectangle_634" d="M0 0H9.08V0.855H0z" class="cls-4" transform="translate(145.554 65.82)"/>
            <path id="Path_94" d="M44.92 34.666l17.8 22.93a2.1 2.1 0 0 0 3.062.249 1.923 1.923 0 0 0 0-2.742L45.917 33.74z" class="cls-12" transform="translate(76.813 41.195)"/>
            <path id="Path_95" d="M38.849 46.522a14.848 14.848 0 1 0 .785-11.372 14.741 14.741 0 0 0-.785 11.372zm25.992-8.439a12.676 12.676 0 1 1-6.237-7.45 12.569 12.569 0 0 1 6.237 7.45z" class="cls-12" transform="translate(59.277 23.855)"/>
            <path id="Path_96" d="M62.636 38.23h11.679a5.02 5.02 0 0 1 5.02 5.056v1.5a5.02 5.02 0 0 1-5.02 5.02H62.636a5.056 5.056 0 0 1-5.056-5.021v-1.5a5.056 5.056 0 0 1 5.056-5.056zm11.5 9.863a3.169 3.169 0 0 0 3.169-3.169v-1.5a3.169 3.169 0 0 0-3.169-3.2h-11.5a3.2 3.2 0 0 0-3.2 3.2v1.5a3.169 3.169 0 0 0 3.2 3.169z" class="cls-2" transform="translate(109.23 52.692)"/>
            <path id="Path_97" d="M67.191 38.23h11.678a5.056 5.056 0 0 1 5.056 5.056v1.5a5.056 5.056 0 0 1-5.056 5.02H67.191a5.02 5.02 0 0 1-5.02-5.02v-1.5a5.02 5.02 0 0 1 5.02-5.056zm-.819 9.614a3.027 3.027 0 0 0 .819 0h11.678a3.169 3.169 0 0 0 3.2-3.169v-1.5a3.2 3.2 0 0 0-3.2-3.2H67.191a3.169 3.169 0 0 0-3.169 3.2v1.5a3.2 3.2 0 0 0 2.35 3.062z" class="cls-2" transform="translate(120.983 52.692)"/>
            <path id="Path_98" d="M76.827 40.5a3.276 3.276 0 0 1-2.777 1.638H62.585a3.169 3.169 0 0 1-2.777-1.638H57.6a5.02 5.02 0 0 0 4.807 3.561h11.679a5.056 5.056 0 0 0 4.806-3.561z" class="cls-2" transform="translate(109.282 58.504)"/>
        </g>
    </g>
</svg>
